<svg xmlns="http://www.w3.org/2000/svg">
    <symbol id="leader-board" width="25" height="25" viewBox="0 0 25 25" fill="currentColor" >
        <path fill-rule="evenodd" clip-rule="evenodd" d="M9.33893 2.5C7.78968 2.5 6.43447 3.33315 5.70248 4.57615H5.38283C3.77609 4.57615 2.5 5.84331 2.5 7.4501C2.5 8.89326 3.12478 10.1056 4.0022 11.0766C4.01002 11.0853 4.01807 11.0937 4.02633 11.102C4.49645 11.5702 5.08622 11.9808 5.76446 12.2401C6.78673 14.4287 8.93484 15.9862 11.4678 16.179V17.519H9.47197C8.13134 17.519 7.03265 18.6095 7.03265 19.9513V20.1694H6.8109C6.44348 20.1694 6.14563 20.4673 6.14563 20.8347C6.14563 21.2021 6.44348 21.4999 6.8109 21.4999H17.4552C17.8226 21.4999 18.1204 21.2021 18.1204 20.8347C18.1204 20.4673 17.8226 20.1694 17.4552 20.1694H17.2334V19.9513C17.2334 18.6095 16.1347 17.519 14.7941 17.519H12.7983V16.1536C15.215 15.8757 17.2493 14.3516 18.2355 12.2401C18.9138 11.9808 19.5035 11.5702 19.9737 11.102C19.9819 11.0937 19.99 11.0853 19.9978 11.0766C20.8752 10.1056 21.5 8.89326 21.5 7.4501C21.5 5.84331 20.2239 4.57615 18.6172 4.57615H18.2975C17.5655 3.33315 16.2103 2.5 14.6611 2.5H9.33893ZM6.4561 6.69916C6.4561 5.11661 7.74351 3.83053 9.33893 3.83053H14.6611C16.2565 3.83053 17.5439 5.11661 17.5439 6.69916V9.34959C17.5439 12.3987 15.0679 14.8686 12 14.8686C8.93212 14.8686 6.4561 12.3987 6.4561 9.34959V6.69916ZM8.36319 20.1694H15.9029V19.9513C15.9029 19.3494 15.4049 18.8496 14.7941 18.8496H9.47197C8.86114 18.8496 8.36319 19.3494 8.36319 19.9513V20.1694ZM5.07499 5.93538C4.35273 6.07272 3.83053 6.68778 3.83053 7.4501C3.83053 8.47498 4.26535 9.37863 4.97754 10.1714C5.02174 10.2151 5.06715 10.2578 5.11371 10.2997C5.0575 9.94797 5.02802 9.5867 5.02802 9.21705V6.56662C5.02802 6.35409 5.04352 6.14301 5.07499 5.93538ZM18.972 6.56662C18.972 6.35409 18.9565 6.14301 18.925 5.93538C19.6473 6.07272 20.1695 6.68778 20.1695 7.4501C20.1695 8.47498 19.7346 9.37863 19.0224 10.1714C18.9782 10.2151 18.9328 10.2578 18.8863 10.2996C18.9425 9.94797 18.972 9.5867 18.972 9.21705V6.56662Z"/>
    </symbol>

    <symbol id="/" width="24" height="24" viewBox="0 0 24 24" fill="currentColor" xmlns="http://www.w3.org/2000/svg">
        <path fill-rule="evenodd" clip-rule="evenodd" d="M1.75 6.5C1.75 3.87665 3.87665 1.75 6.5 1.75C9.12335 1.75 11.25 3.87665 11.25 6.5C11.25 9.12335 9.12335 11.25 6.5 11.25C3.87665 11.25 1.75 9.12335 1.75 6.5Z"/>
        <path fill-rule="evenodd" clip-rule="evenodd" d="M12.75 17.5C12.75 14.8766 14.8766 12.75 17.5 12.75C20.1234 12.75 22.25 14.8766 22.25 17.5C22.25 20.1234 20.1234 22.25 17.5 22.25C14.8766 22.25 12.75 20.1234 12.75 17.5Z" />
        <path fill-rule="evenodd" clip-rule="evenodd" d="M22.25 6.5C22.25 3.87665 20.1234 1.75 17.5 1.75C14.8766 1.75 12.75 3.87665 12.75 6.5C12.75 9.12335 14.8766 11.25 17.5 11.25C20.1234 11.25 22.25 9.12335 22.25 6.5Z" />
        <path fill-rule="evenodd" clip-rule="evenodd" d="M11.25 17.5C11.25 14.8766 9.12335 12.75 6.5 12.75C3.87665 12.75 1.75 14.8766 1.75 17.5C1.75 20.1234 3.87665 22.25 6.5 22.25C9.12335 22.25 11.25 20.1234 11.25 17.5Z" />
    </symbol>

    <symbol id="friends" width="24" height="24" viewBox="0 0 24 24" fill="currentColor" xmlns="http://www.w3.org/2000/svg">
        <circle cx="12" cy="6" r="4" />
        <path d="M20 17.5C20 19.9853 20 22 12 22C4 22 4 19.9853 4 17.5C4 15.0147 7.58172 13 12 13C16.4183 13 20 15.0147 20 17.5Z" />
    </symbol>

    <symbol id="tasks" width="24" height="24" viewBox="0 0 24 24" fill="currentColor" xmlns="http://www.w3.org/2000/svg">
        <path d="M12.8324 21.8013C15.9583 21.1747 20 18.926 20 13.1112C20 7.8196 16.1267 4.29593 13.3415 2.67685C12.7235 2.31757 12 2.79006 12 3.50492V5.3334C12 6.77526 11.3938 9.40711 9.70932 10.5018C8.84932 11.0607 7.92052 10.2242 7.816 9.20388L7.73017 8.36604C7.6304 7.39203 6.63841 6.80075 5.85996 7.3946C4.46147 8.46144 3 10.3296 3 13.1112C3 20.2223 8.28889 22.0001 10.9333 22.0001C11.0871 22.0001 11.2488 21.9955 11.4171 21.9858C10.1113 21.8742 8 21.064 8 18.4442C8 16.3949 9.49507 15.0085 10.631 14.3346C10.9365 14.1533 11.2941 14.3887 11.2941 14.7439V15.3331C11.2941 15.784 11.4685 16.4889 11.8836 16.9714C12.3534 17.5174 13.0429 16.9454 13.0985 16.2273C13.1161 16.0008 13.3439 15.8564 13.5401 15.9711C14.1814 16.3459 15 17.1465 15 18.4442C15 20.4922 13.871 21.4343 12.8324 21.8013Z" />
    </symbol>

    <symbol id="shop" width="24" height="24" viewBox="0 0 24 24" fill="currentColor" xmlns="http://www.w3.org/2000/svg">
        <path fill-rule="evenodd" clip-rule="evenodd" d="M8.25062 6.01489C8.25052 6.00994 8.25047 6.00498 8.25047 6V5C8.25047 2.92893 9.9294 1.25 12.0005 1.25C14.0715 1.25 15.7505 2.92893 15.7505 5V6C15.7505 6.00498 15.7504 6.00994 15.7503 6.01489C17.0376 6.05353 17.8253 6.1924 18.4266 6.69147C19.2598 7.38295 19.4792 8.55339 19.9181 10.8943L20.6681 14.8943C21.2853 18.186 21.5939 19.8318 20.6942 20.9159C19.7945 22 18.12 22 14.7709 22H9.23003C5.88097 22 4.20644 22 3.30672 20.9159C2.40701 19.8318 2.7156 18.186 3.3328 14.8943L4.0828 10.8943C4.52171 8.55339 4.74117 7.38295 5.57434 6.69147C6.17569 6.1924 6.96336 6.05353 8.25062 6.01489ZM9.75047 5C9.75047 3.75736 10.7578 2.75 12.0005 2.75C13.2431 2.75 14.2505 3.75736 14.2505 5V6C14.2505 5.99999 14.2505 6.00001 14.2505 6C14.1752 5.99998 14.0987 6 14.0209 6H9.98003C9.90225 6 9.82574 6 9.75047 6.00002C9.75047 6.00002 9.75047 6.00003 9.75047 6.00002V5Z" />
    </symbol>


    <symbol id="leaders" width="24" height="24" viewBox="0 0 24 24" fill="currentColor" xmlns="http://www.w3.org/2000/svg">
        <path fill-rule="evenodd" clip-rule="evenodd" d="M9.15316 5.40838C10.4198 3.13613 11.0531 2 12 2C12.9469 2 13.5802 3.13612 14.8468 5.40837L15.1745 5.99623C15.5345 6.64193 15.7144 6.96479 15.9951 7.17781C16.2757 7.39083 16.6251 7.4699 17.3241 7.62805L17.9605 7.77203C20.4201 8.32856 21.65 8.60682 21.9426 9.54773C22.2352 10.4886 21.3968 11.4691 19.7199 13.4299L19.2861 13.9372C18.8096 14.4944 18.5713 14.773 18.4641 15.1177C18.357 15.4624 18.393 15.8341 18.465 16.5776L18.5306 17.2544C18.7841 19.8706 18.9109 21.1787 18.1449 21.7602C17.3788 22.3417 16.2273 21.8115 13.9243 20.7512L13.3285 20.4768C12.6741 20.1755 12.3469 20.0248 12 20.0248C11.6531 20.0248 11.3259 20.1755 10.6715 20.4768L10.0757 20.7512C7.77268 21.8115 6.62118 22.3417 5.85515 21.7602C5.08912 21.1787 5.21588 19.8706 5.4694 17.2544L5.53498 16.5776C5.60703 15.8341 5.64305 15.4624 5.53586 15.1177C5.42868 14.773 5.19043 14.4944 4.71392 13.9372L4.2801 13.4299C2.60325 11.4691 1.76482 10.4886 2.05742 9.54773C2.35002 8.60682 3.57986 8.32856 6.03954 7.77203L6.67589 7.62805C7.37485 7.4699 7.72433 7.39083 8.00494 7.17781C8.28555 6.96479 8.46553 6.64194 8.82547 5.99623L9.15316 5.40838Z" />
    </symbol>

</svg>
