<svg width="17" height="20" viewBox="0 0 17 20" fill="none" xmlns="http://www.w3.org/2000/svg">
<g filter="url(#filter0_d_98_31099)">
<path d="M9.29007 0.0729069C9.42724 0.0221869 9.71447 -0.107328 9.84557 0.183308C10.0094 0.546603 10.2713 1.12637 10.3648 1.5988C10.4728 2.14506 10.4707 2.7855 10.3494 3.28869C10.2281 3.79187 9.77253 4.55872 9.05399 4.64742C8.47916 4.71839 8.10534 4.59617 7.8484 4.22748C7.66849 3.96939 7.48598 3.47507 7.46092 3.19952C7.43586 2.92397 7.56091 1.83103 7.91495 1.30785C8.4703 0.487199 9.06716 0.155326 9.29007 0.0729069Z" fill="white"/>
<path d="M5.61072 3.48298C5.63076 3.33735 5.65069 3.02149 5.99036 3.04106C6.41494 3.06553 7.09271 3.10423 7.58554 3.24236C8.1554 3.40208 8.75965 3.70379 9.17513 4.04713C9.59061 4.39047 10.0896 5.15427 9.81737 5.83427C9.59956 6.37826 9.29879 6.65321 8.82298 6.70892C8.48988 6.74796 7.93222 6.67871 7.65936 6.57198C7.3865 6.46525 6.41548 5.84249 6.09645 5.28298C5.59603 4.40534 5.57814 3.71963 5.61072 3.48298Z" fill="white"/>
<path d="M4.55569 6.86323C4.50906 6.70531 4.37926 6.37047 4.80267 6.28011C5.33193 6.16716 6.17662 5.98649 6.84449 5.96946C7.61675 5.94977 8.50019 6.06648 9.17393 6.28798C9.84767 6.50949 10.8283 7.14087 10.8283 7.9365C10.8284 8.573 10.596 8.95686 10.0435 9.16984C9.65666 9.31899 8.94341 9.42876 8.55887 9.40674C8.17434 9.38471 6.68738 9.0538 6.0257 8.57613C4.98779 7.82687 4.63146 7.11986 4.55569 6.86323Z" fill="white"/>
<path d="M6.0618 10.282C5.95586 10.1264 5.7023 9.80438 6.06278 9.59935C6.51338 9.34307 7.23236 8.93361 7.85048 8.74343C8.56521 8.52352 9.43778 8.41975 10.1555 8.48127C10.8732 8.54278 12.0398 8.9603 12.3538 9.80487C12.6049 10.4805 12.539 10.9479 12.1061 11.3163C11.803 11.5744 11.1791 11.8747 10.8106 11.9504C10.4422 12.0261 8.92044 12.058 8.11293 11.7215C6.84626 11.1936 6.23394 10.5349 6.0618 10.282Z" fill="white"/>
</g>
<defs>
<filter id="filter0_d_98_31099" x="0.5" y="0" width="16" height="20" filterUnits="userSpaceOnUse" color-interpolation-filters="sRGB">
<feFlood flood-opacity="0" result="BackgroundImageFix"/>
<feColorMatrix in="SourceAlpha" type="matrix" values="0 0 0 0 0 0 0 0 0 0 0 0 0 0 0 0 0 0 127 0" result="hardAlpha"/>
<feOffset dy="4"/>
<feGaussianBlur stdDeviation="2"/>
<feComposite in2="hardAlpha" operator="out"/>
<feColorMatrix type="matrix" values="0 0 0 0 0 0 0 0 0 0 0 0 0 0 0 0 0 0 0.2 0"/>
<feBlend mode="normal" in2="BackgroundImageFix" result="effect1_dropShadow_98_31099"/>
<feBlend mode="normal" in="SourceGraphic" in2="effect1_dropShadow_98_31099" result="shape"/>
</filter>
</defs>
</svg>
