<svg width="29" height="29" viewBox="0 0 29 29" fill="none" xmlns="http://www.w3.org/2000/svg">
<path fill-rule="evenodd" clip-rule="evenodd" d="M6.26532 10.0345C5.72486 6.45066 8.192 3.10725 11.7758 2.56678C14.7982 2.11098 17.6519 3.79479 18.7944 6.48515C18.9968 6.96172 19.5472 7.18399 20.0238 6.98161C20.5004 6.77922 20.7226 6.22881 20.5203 5.75224C19.0515 2.29364 15.3851 0.126275 11.4962 0.712741C6.88844 1.40763 3.7164 5.70631 4.41129 10.3141L4.65413 11.9244C4.37673 11.9864 4.11635 12.0519 3.87279 12.1228C2.78279 12.4401 1.8943 12.9014 1.26251 13.7576C0.630729 14.6138 0.451999 15.5988 0.470201 16.7339C0.487733 17.8272 0.693226 19.1897 0.94817 20.8801L0.96863 21.0157C1.22352 22.7061 1.42898 24.0686 1.73465 25.1185C2.05201 26.2085 2.51328 27.097 3.36946 27.7287C4.22564 28.3605 5.21065 28.5393 6.34576 28.5211C7.43908 28.5035 8.80158 28.298 10.492 28.0431L20.5158 26.5314C22.2062 26.2765 23.5687 26.0711 24.6185 25.7654C25.7085 25.448 26.597 24.9868 27.2288 24.1306C27.8606 23.2744 28.0393 22.2894 28.0211 21.1543C28.0036 20.061 27.7981 18.6985 27.5431 17.0081L27.5227 16.8725C27.2678 15.1821 27.0623 13.8196 26.7567 12.7697C26.4393 11.6797 25.978 10.7912 25.1219 10.1594C24.2657 9.52765 23.2807 9.34892 22.1456 9.36713C21.0522 9.38466 19.6897 9.59015 17.9994 9.8451L7.97553 11.3568C7.45205 11.4357 6.96001 11.5099 6.49897 11.5838L6.26532 10.0345ZM2.77122 14.8709C3.06172 14.4772 3.50837 14.1817 4.39694 13.923C5.31165 13.6567 6.54875 13.4681 8.32296 13.2006L18.2111 11.7094C19.9854 11.4418 21.2231 11.2572 22.1756 11.2419C23.101 11.227 23.6149 11.3777 24.0086 11.6681C24.4022 11.9586 24.6977 12.4053 24.9564 13.2939C25.2227 14.2086 25.4113 15.4457 25.6789 17.2199C25.9464 18.9941 26.1311 20.2318 26.1464 21.1843C26.1612 22.1097 26.0106 22.6236 25.7201 23.0173C25.4296 23.411 24.9829 23.7064 24.0944 23.9652C23.1797 24.2315 21.9426 24.42 20.1684 24.6876L10.2802 26.1788C8.50596 26.4464 7.26826 26.631 6.3157 26.6463C5.39035 26.6611 4.87643 26.5105 4.48276 26.22C4.08908 25.9295 3.79361 25.4829 3.5349 24.5943C3.26858 23.6796 3.08 22.4425 2.81244 20.6683C2.54487 18.8941 2.36023 17.6564 2.34496 16.7038C2.33012 15.7785 2.48073 15.2646 2.77122 14.8709Z" fill="#FCA810"/>
</svg>
