<svg width="17" height="20" viewBox="0 0 17 20" fill="none" xmlns="http://www.w3.org/2000/svg">
<g filter="url(#filter0_d_98_31101)">
<path d="M7.70993 0.0729069C7.57276 0.0221869 7.28553 -0.107328 7.15443 0.183308C6.99056 0.546603 6.72867 1.12637 6.63522 1.5988C6.52717 2.14506 6.5293 2.7855 6.65059 3.28869C6.77189 3.79187 7.22747 4.55872 7.94601 4.64742C8.52084 4.71839 8.89466 4.59617 9.1516 4.22748C9.33151 3.96939 9.51402 3.47507 9.53908 3.19952C9.56414 2.92397 9.43909 1.83103 9.08505 1.30785C8.5297 0.487199 7.93284 0.155326 7.70993 0.0729069Z" fill="white"/>
<path d="M11.3893 3.48298C11.3692 3.33735 11.3493 3.02149 11.0096 3.04106C10.5851 3.06553 9.90729 3.10423 9.41446 3.24236C8.8446 3.40208 8.24035 3.70379 7.82487 4.04713C7.40939 4.39047 6.91038 5.15427 7.18263 5.83427C7.40044 6.37826 7.70121 6.65321 8.17702 6.70892C8.51012 6.74796 9.06778 6.67871 9.34064 6.57198C9.6135 6.46525 10.5845 5.84249 10.9036 5.28298C11.404 4.40534 11.4219 3.71963 11.3893 3.48298Z" fill="white"/>
<path d="M12.4443 6.86323C12.4909 6.70531 12.6207 6.37047 12.1973 6.28011C11.6681 6.16716 10.8234 5.98649 10.1555 5.96946C9.38325 5.94977 8.49981 6.06648 7.82607 6.28798C7.15233 6.50949 6.17168 7.14087 6.17165 7.9365C6.17164 8.573 6.40397 8.95686 6.95653 9.16984C7.34334 9.31899 8.05659 9.42876 8.44113 9.40674C8.82566 9.38471 10.3126 9.0538 10.9743 8.57613C12.0122 7.82687 12.3685 7.11986 12.4443 6.86323Z" fill="white"/>
<path d="M10.9382 10.282C11.0441 10.1264 11.2977 9.80438 10.9372 9.59935C10.4866 9.34307 9.76764 8.93361 9.14952 8.74343C8.43479 8.52352 7.56222 8.41975 6.84449 8.48127C6.12677 8.54278 4.96018 8.9603 4.64624 9.80487C4.39509 10.4805 4.461 10.9479 4.89392 11.3163C5.19697 11.5744 5.82095 11.8747 6.18939 11.9504C6.55784 12.0261 8.07956 12.058 8.88707 11.7215C10.1537 11.1936 10.7661 10.5349 10.9382 10.282Z" fill="white"/>
</g>
<defs>
<filter id="filter0_d_98_31101" x="0.5" y="0" width="16" height="20" filterUnits="userSpaceOnUse" color-interpolation-filters="sRGB">
<feFlood flood-opacity="0" result="BackgroundImageFix"/>
<feColorMatrix in="SourceAlpha" type="matrix" values="0 0 0 0 0 0 0 0 0 0 0 0 0 0 0 0 0 0 127 0" result="hardAlpha"/>
<feOffset dy="4"/>
<feGaussianBlur stdDeviation="2"/>
<feComposite in2="hardAlpha" operator="out"/>
<feColorMatrix type="matrix" values="0 0 0 0 0 0 0 0 0 0 0 0 0 0 0 0 0 0 0.2 0"/>
<feBlend mode="normal" in2="BackgroundImageFix" result="effect1_dropShadow_98_31101"/>
<feBlend mode="normal" in="SourceGraphic" in2="effect1_dropShadow_98_31101" result="shape"/>
</filter>
</defs>
</svg>
